<?xml version="1.0" encoding="UTF-8"?>
<svg version="1.1" xmlns="http://www.w3.org/2000/svg" width="512" height="512">
<path d="M0 0 C1.54332265 -0.00533048 3.0866401 -0.01239905 4.62994772 -0.02104706 C8.85460837 -0.03963496 13.07891755 -0.03338278 17.30359256 -0.02289402 C21.86607131 -0.01589106 26.42847866 -0.03190826 30.99093628 -0.04489136 C39.92264689 -0.06651818 48.85423003 -0.06640784 57.78595822 -0.05826581 C65.04634959 -0.0519625 72.30670382 -0.0531059 79.5670948 -0.05953789 C80.60097327 -0.06043954 81.63485173 -0.0613412 82.70005985 -0.06227018 C84.80046674 -0.0641214 86.90087362 -0.06598396 89.00128049 -0.06785773 C108.69160694 -0.0844316 128.38186171 -0.07572049 148.07218385 -0.05887216 C166.08066151 -0.04417549 184.08897232 -0.05880389 202.09742849 -0.08764232 C220.59608292 -0.11704477 239.09466035 -0.12800612 257.59333712 -0.11846012 C259.68626406 -0.11743758 261.77919102 -0.11644297 263.872118 -0.11547661 C265.41669084 -0.11476202 265.41669084 -0.11476202 266.99246718 -0.114033 C274.24201648 -0.11187 281.4914928 -0.12166689 288.74102592 -0.13624763 C297.5789647 -0.15377537 306.41669077 -0.1536472 315.2546212 -0.13089598 C319.76227102 -0.11975787 324.26954614 -0.1165815 328.77717972 -0.13519669 C332.9071196 -0.15203242 337.03635888 -0.14560903 341.16625363 -0.1209799 C342.65672836 -0.11610631 344.14725993 -0.11958586 345.63768696 -0.13246734 C355.48856027 -0.2114333 363.39728624 0.6453664 370.9238562 7.44580358 C377.47657807 14.06660236 379.11374713 21.77741213 379.19240659 30.8797273 C379.18639655 31.92448321 379.1803865 32.96923912 379.17419434 34.0456543 C379.18227264 35.74332155 379.18227264 35.74332155 379.19051415 37.47528511 C379.20477463 41.25211373 379.19769447 45.02859093 379.19056702 48.80543518 C379.19462961 51.51957605 379.20313594 54.2336992 379.21136475 56.9478302 C379.22852424 63.54537407 379.22939874 70.14282258 379.22415184 76.74038296 C379.22010377 82.10479497 379.22156125 87.46917888 379.2269001 92.83358955 C379.22764852 93.59825798 379.22839694 94.3629264 379.22916805 95.1507666 C379.23069959 96.70438449 379.23223793 98.25800237 379.23378301 99.81162024 C379.24749761 114.36723274 379.24207757 128.92279142 379.2305978 143.47840268 C379.22066536 156.78247307 379.23360809 170.08640439 379.25753199 183.39045333 C379.2819382 197.06621108 379.2915272 210.7419041 379.28487927 224.41768318 C379.28139057 232.08955656 379.28359603 239.76132299 379.30113029 247.43317986 C379.31587129 253.96361545 379.316463 260.49386877 379.29905938 267.02430087 C379.2905625 270.3533042 379.29054555 273.68171573 379.30371094 277.01074409 C379.31691644 280.62636502 379.3053756 284.2411061 379.28771973 287.85668945 C379.29732473 288.89921464 379.30692974 289.94173983 379.31682581 291.01585668 C379.23645259 299.03542173 377.23501123 305.37105347 373.16151428 312.2646637 C367.30423373 317.81366633 360.57013545 321.63968777 352.42886353 321.63923645 C351.5639328 321.64179947 350.69900208 321.64436249 349.80786133 321.64700317 C348.86697159 321.64490341 347.92608185 321.64280365 346.9566803 321.64064026 C345.95950989 321.64250839 344.96233948 321.64437653 343.93495178 321.64630127 C341.77038392 321.65030336 339.60581184 321.65237993 337.44124031 321.65276337 C332.84179781 321.65617875 328.2424967 321.67753786 323.6431036 321.69799423 C315.07882733 321.73603167 306.51470303 321.76727502 297.95033264 321.76515198 C291.99330142 321.76436599 286.03678895 321.78767815 280.07989311 321.827034 C277.80931364 321.83751067 275.53867442 321.83900585 273.26808357 321.83138275 C270.09339631 321.82178562 266.92028741 321.84289688 263.7457428 321.87110901 C262.33744453 321.85581398 262.33744453 321.85581398 260.9006958 321.84020996 C256.37163693 321.91245729 254.4408902 321.98442507 250.8203125 324.91816711 C249.81358238 326.20343292 249.81358238 326.20343292 248.78651428 327.5146637 C246.30114309 329.68936349 244.43040274 331.29761697 241.29359436 332.35499573 C238.22836396 333.77284015 237.62645192 334.879 236.17323303 337.8818512 C235.73406555 338.76187805 235.29489807 339.64190491 234.84242249 340.54859924 C234.39084778 341.48615051 233.93927307 342.42370178 233.47401428 343.3896637 C227.39274815 355.48983974 220.46826112 366.07809569 211.78651428 376.5146637 C213.76110768 378.87454361 215.75453257 381.20476521 217.78651428 383.5146637 C218.25831116 384.05478088 218.73010803 384.59489807 219.21620178 385.15138245 C223.0559905 389.25975742 227.36784123 392.49084063 231.91151428 395.7646637 C258.37941549 414.88127971 277.5360725 438.73939282 283.24354553 471.6006012 C284.43724612 480.20555079 285.01461147 488.70180058 285.09901428 497.3896637 C285.12801819 498.40802307 285.15702209 499.42638245 285.18690491 500.4756012 C285.19528381 501.4552887 285.20366272 502.4349762 285.21229553 503.4443512 C285.23416931 504.76282043 285.23416931 504.76282043 285.25648499 506.10792542 C284.59668151 509.48680474 283.54702047 510.45072891 280.78651428 512.5146637 C277.75502723 512.90738072 275.08748357 513.05503468 272.05628967 513.02259827 C271.16547982 513.02883823 270.27466997 513.03507819 269.35686588 513.04150724 C266.36569985 513.05748857 263.37534291 513.04481284 260.38417053 513.03224182 C258.24230981 513.03766065 256.10045281 513.04478195 253.95860291 513.05348206 C248.1363502 513.07174669 242.31438042 513.06463481 236.49212265 513.05196571 C230.40543086 513.04185436 224.31876365 513.0512262 218.23207092 513.05751038 C208.00961447 513.06479221 197.78727352 513.05518496 187.56483459 513.03614807 C175.73820139 513.01437839 163.91184399 513.02142938 152.08521748 513.04345369 C141.93991131 513.06159237 131.79468828 513.0641735 121.64937115 513.05369902 C115.58616298 513.04745568 109.52308453 513.04665159 103.45988464 513.05984497 C97.76022016 513.07138048 92.06091205 513.06341958 86.36128616 513.04026794 C84.26664446 513.03496858 82.17197289 513.03651549 80.07734299 513.0453186 C77.22340027 513.05620909 74.37060781 513.0425891 71.51673889 513.02259827 C70.68289201 513.03152115 69.84904512 513.04044404 68.98993015 513.04963732 C65.37762436 513.00037464 63.22549917 512.83699027 60.27223206 510.66854095 C58.2343574 507.7141899 58.28461722 505.66044358 58.29042053 502.08888245 C58.28752014 500.82423157 58.28461975 499.55958069 58.28163147 498.25660706 C58.30224547 496.9050965 58.32473976 495.55361346 58.34901428 494.2021637 C58.35874268 493.181483 58.35874268 493.181483 58.3686676 492.1401825 C58.46600017 482.28205401 59.00509577 473.0268742 61.78651428 463.5146637 C62.05335022 462.45505432 62.32018616 461.39544495 62.59510803 460.3037262 C70.2567969 432.17681507 90.0362034 409.16518452 114.84901428 394.5771637 C115.77738098 394.04723816 115.77738098 394.04723816 116.72450256 393.50660706 C122.30338742 390.32030825 126.61384193 387.56442713 129.59901428 381.7646637 C130.01795959 380.96544495 130.43690491 380.1662262 130.86854553 379.3427887 C131.17147522 378.73950745 131.47440491 378.1362262 131.78651428 377.5146637 C131.18065491 376.89462463 130.57479553 376.27458557 129.95057678 375.63575745 C120.42320561 365.56605899 101.78651428 344.85196799 101.78651428 330.5146637 C101.05948303 330.4115387 100.33245178 330.3084137 99.58338928 330.2021637 C96.51289081 329.44740429 94.61841873 328.31679834 92.03651428 326.5146637 C91.25792053 325.9784137 90.47932678 325.4421637 89.67713928 324.8896637 C87.78651428 323.5146637 87.78651428 323.5146637 86.78651428 322.5146637 C83.73458464 322.41056194 80.70454089 322.37105561 77.6519928 322.37281799 C76.69255264 322.36934357 75.73311249 322.36586914 74.74459839 322.36228943 C72.65201972 322.35491561 70.55943315 322.34957894 68.46684456 322.34599876 C65.14966588 322.33884849 61.83263645 322.32318989 58.51550293 322.30465698 C49.08055245 322.25213991 39.64567982 322.20426299 30.21058655 322.18873596 C24.44506873 322.17862437 18.6799204 322.14921081 12.91454887 322.10741615 C10.72067505 322.09513802 8.52674892 322.08997904 6.33284187 322.09221458 C3.25002671 322.09458137 0.16825953 322.07229318 -2.91441345 322.04469299 C-3.8119635 322.0512944 -4.70951355 322.05789581 -5.63426208 322.06469727 C-13.5141315 321.94961993 -19.95975003 319.66335708 -26.52598572 315.3271637 C-32.16377615 309.42715045 -35.33271362 302.89461795 -35.34491348 294.72160053 C-35.34875463 293.75428605 -35.35259577 292.78697158 -35.35655332 291.79034454 C-35.35568683 290.7303423 -35.35482035 289.67034007 -35.35392761 288.57821655 C-35.35689873 287.45000494 -35.35986986 286.32179333 -35.36293101 285.15939349 C-35.37162846 281.36480489 -35.37312715 277.57024781 -35.37461853 273.77565002 C-35.37870785 271.06063145 -35.3842499 268.34561619 -35.3896637 265.63059998 C-35.40324288 258.24410612 -35.40927122 250.8576177 -35.41367435 243.47111344 C-35.41643773 238.85780297 -35.42067528 234.24449459 -35.42517853 229.63118553 C-35.43737113 216.85529239 -35.44767015 204.07940092 -35.45105362 191.30350208 C-35.45127319 190.48587831 -35.45149275 189.66825453 -35.45171897 188.82585428 C-35.45193725 188.00628522 -35.45215553 187.18671617 -35.45238042 186.34231168 C-35.45282388 184.68158201 -35.45327045 183.02085235 -35.45372009 181.36012268 C-35.45394152 180.53634519 -35.45416295 179.7125677 -35.45439109 178.86382725 C-35.45833788 165.51999252 -35.47578832 152.17621244 -35.49907961 138.83239881 C-35.52280597 125.12856616 -35.53525607 111.42476091 -35.53642154 97.72090739 C-35.53733763 90.02832258 -35.54307319 82.33580896 -35.56124115 74.64324379 C-35.57665954 68.09183341 -35.5817524 61.54051622 -35.57350305 54.98909114 C-35.56960249 51.64817119 -35.57213645 48.30759101 -35.58456039 44.96666908 C-35.59725662 41.33962789 -35.59141509 37.71306693 -35.58097839 34.08602905 C-35.5890348 33.03718043 -35.5970912 31.9883318 -35.60539174 30.90769988 C-35.54951424 22.59495666 -34.32127044 15.06012864 -28.58848572 8.7021637 C-27.67196228 7.64062073 -27.67196228 7.64062073 -26.73692322 6.55763245 C-18.58138092 -0.0450744 -10.14129897 -0.06127102 0 0 Z " fill="#010202" transform="translate(84.21348571777344,-0.5146636962890625)"/>
<path d="M0 0 C1.92418226 -0.00761181 1.92418226 -0.00761181 3.88723689 -0.0153774 C5.32423957 -0.01597913 6.7612423 -0.01647819 8.19824505 -0.01688576 C9.71433538 -0.0208988 11.23042464 -0.02533675 12.74651259 -0.03016531 C16.92811922 -0.04215417 21.10971429 -0.04778459 25.29133475 -0.05234647 C29.79519418 -0.05829373 34.29903973 -0.06990567 38.80288982 -0.08063698 C49.68685511 -0.10517978 60.570825 -0.1197902 71.45480946 -0.13269705 C74.52719188 -0.13640739 77.59957385 -0.14038074 80.67195582 -0.14444971 C99.73783465 -0.1696829 118.80371417 -0.19174303 137.86960602 -0.20417786 C142.28755795 -0.20710771 146.70550985 -0.21006935 151.12346172 -0.21308327 C152.2215654 -0.21382932 153.31966908 -0.21457537 154.45104863 -0.21534403 C172.24993979 -0.22800464 190.0487312 -0.2612362 207.8475757 -0.3028851 C226.10753423 -0.34526395 244.36744163 -0.36886814 262.62744921 -0.37409842 C272.88538726 -0.37751697 283.1431694 -0.38932446 293.40105915 -0.42220116 C302.13498203 -0.45014715 310.86871707 -0.46122501 319.6026812 -0.4500057 C324.0610763 -0.44480516 328.51907767 -0.44779576 332.97741604 -0.47247124 C337.05676935 -0.49486131 341.1354438 -0.49430454 345.21480819 -0.47526737 C346.69262957 -0.47245288 348.170496 -0.47814589 349.6482446 -0.4930803 C351.65335467 -0.51210962 353.65870052 -0.49744296 355.66383362 -0.48101807 C357.33620448 -0.48305286 357.33620448 -0.48305286 359.0423606 -0.48512876 C362.95955319 0.33313665 364.45833267 2.15020309 367.02067852 5.13701439 C367.35067852 5.46701439 367.68067852 5.79701439 368.02067852 6.13701439 C368.1186303 9.03220028 368.15059945 11.90353518 368.14093304 14.79913902 C368.14221467 16.17861958 368.14221467 16.17861958 368.1435222 17.58596843 C368.14517982 20.69227716 368.13965104 23.79853284 368.13420391 26.90483665 C368.13392207 29.12170472 368.1340797 31.33857289 368.13464642 33.5554409 C368.13493453 39.5944534 368.12903562 45.63344622 368.12207246 51.67245412 C368.11584116 57.97590171 368.1152353 64.27934971 368.11404705 70.58279991 C368.11128735 81.16947834 368.10503184 91.75615028 368.09611797 102.34282494 C368.08694455 113.24907457 368.07987484 124.15532223 368.07561016 135.06157494 C368.07534216 135.74024512 368.07507417 136.4189153 368.07479805 137.11815125 C368.07248533 143.02123578 368.07033247 148.92432037 368.06819534 154.82740498 C368.05877894 180.26394827 368.03886047 205.70047236 368.02067852 231.13701439 C333.04067852 231.13701439 298.06067852 231.13701439 262.02067852 231.13701439 C260.04067852 223.21701439 260.04067852 223.21701439 258.02067852 215.13701439 C256.45467857 211.30443557 254.9051785 207.78407611 253.02067852 204.13701439 C252.39419415 202.8028347 252.39419415 202.8028347 251.75505352 201.44170189 C247.77171026 193.40633703 242.28626579 187.42972541 236.02067852 181.13701439 C235.38517071 180.46670189 234.7496629 179.79638939 234.09489727 179.10576439 C224.56435263 169.80767206 210.71800106 165.07482627 198.02067852 162.13701439 C197.30017315 161.96266869 196.57966778 161.78832298 195.83732891 161.60869408 C192.21284598 161.00173377 188.63083893 160.93549237 184.96599102 160.89873314 C183.79808529 160.88662552 183.79808529 160.88662552 182.6065855 160.8742733 C180.95752945 160.86047406 179.30844533 160.84973339 177.6593504 160.84184837 C176.00138538 160.83041524 174.34345458 160.81010366 172.68571758 160.78032494 C158.13779164 160.5196042 145.44605714 162.3886597 132.20817852 168.88701439 C131.49806622 169.22845482 130.78795391 169.56989525 130.05632305 169.92168236 C124.03918427 172.91996018 119.01918838 176.64587207 114.02067852 181.13701439 C113.35552227 181.65006126 112.69036602 182.16310814 112.00505352 182.69170189 C107.06686822 186.53020727 103.62016812 191.05288093 102.68962383 197.39238548 C102.55048405 200.49652773 102.57155415 203.58361373 102.6202879 206.68974876 C102.55826952 210.9909055 102.49715087 212.58087464 99.59099102 215.97295189 C98.7427879 216.68709251 97.89458477 217.40123314 97.02067852 218.13701439 C94.92823721 222.39939484 93.52812698 226.61466902 92.02067852 231.13701439 C57.70067852 231.13701439 23.38067852 231.13701439 -11.97932148 231.13701439 C-12.14053362 174.91428165 -12.14053362 174.91428165 -12.17463398 151.40068626 C-12.18248875 146.02755754 -12.19054752 140.65442924 -12.19904804 135.2813015 C-12.20010304 134.60785987 -12.20115803 133.93441824 -12.202245 133.24056929 C-12.21964612 122.36585516 -12.25118348 111.49122556 -12.28793266 100.61656157 C-12.32532805 89.45767644 -12.34725491 78.29882027 -12.35567546 67.13987178 C-12.36089707 60.87141261 -12.37319713 54.60314514 -12.40224171 48.33474731 C-12.42934628 42.43738583 -12.43777642 36.54029543 -12.4317522 30.64287758 C-12.43285465 28.47607323 -12.4408378 26.30926003 -12.45614338 24.14250946 C-12.47599335 21.18805678 -12.47127858 18.2346327 -12.46033955 15.28015709 C-12.47199091 14.41925793 -12.48364228 13.55835877 -12.49564672 12.67137176 C-12.45502785 8.62325657 -12.29106253 6.62939276 -10.07425785 3.12806797 C-6.66873875 -0.10857974 -4.61323329 0.00964783 0 0 Z " fill="#FEFEFE" transform="translate(77.97932147979736,16.862985610961914)"/>
<path d="M0 0 C14.22741296 10.60543128 23.0127526 25.12985253 26.63598633 42.44946289 C27.36996729 47.59225238 27.24420286 52.75366516 27.1875 57.9375 C27.1865332 59.61102539 27.1865332 59.61102539 27.18554688 61.31835938 C27.15419932 67.26394518 26.8913695 73.01413197 25.97412109 78.89331055 C26.00693673 81.5646888 26.86128908 82.75878821 28.4375 84.875 C31.54262573 89.1717286 31.7164407 92.87265895 31.4921875 98.08984375 C30.57763919 103.49729212 27.93074162 107.06925838 24.125 110.875 C22 112 22 112 18.5625 112.6875 C12.07270827 115.0784759 10.14026176 121.7040534 7.25952148 127.57128906 C6.92637939 128.24901367 6.5932373 128.92673828 6.25 129.625 C5.91105713 130.31561523 5.57211426 131.00623047 5.22290039 131.71777344 C-1.64588761 145.5095977 -10.50295859 162.74200528 -25.8203125 167.9609375 C-38.24288802 171.42400842 -51.243676 170.91062256 -62.95703125 165.16796875 C-79.58795121 155.66004319 -89.75519401 133.54761635 -97.33203125 116.7578125 C-99.89359033 112.52254152 -103.00384956 111.39134482 -107.5 109.625 C-111.23757492 107.88969736 -113.34518617 106.12331039 -116 103 C-117.24031977 99.2790407 -117.54907443 95.86548395 -117 92 C-115.125 88.6875 -115.125 88.6875 -113 86 C-110.77563496 82.66345244 -110.75336322 81.57439897 -110.8125 77.6875 C-110.81894531 76.76324219 -110.82539063 75.83898437 -110.83203125 74.88671875 C-110.94615121 71.99011002 -110.94615121 71.99011002 -111.49609375 69.12890625 C-112.94648033 60.12301746 -113.67350401 48.10266949 -109 40 C-106.78423175 37.63651386 -104.50253336 35.60070595 -101.9609375 33.59375 C-99.89913999 32.14163933 -99.89913999 32.14163933 -99 30 C-98.74139865 25.94857881 -98.69558446 24.45662331 -101 21 C-101.83446599 17.82775523 -101.8051218 15.1802311 -101 12 C-92.31857887 -0.52128048 -76.07529563 -7.54747021 -61.61962891 -10.60522461 C-40.71252201 -13.75590419 -18.03194439 -11.56442989 0 0 Z " fill="#FEFEFE" transform="translate(297,204)"/>
<path d="M0 0 C22.02478919 11.06559457 39.90949394 31.72392387 48 55 C49.48904196 60.59244139 50.26916381 66.26806987 51 72 C51.28037109 73.38638672 51.28037109 73.38638672 51.56640625 74.80078125 C52.20236968 79.49316007 52 84.26472086 52 89 C-11.36 89 -74.72 89 -140 89 C-140 70.86624204 -140 70.86624204 -138 64 C-137.74283203 62.81857422 -137.74283203 62.81857422 -137.48046875 61.61328125 C-131.36671486 35.22553058 -113.16022879 15.89055521 -90.8984375 1.65625 C-88.14981456 0.70610874 -86.77733159 1.09796068 -84 2 C-81.31438444 3.3105684 -78.72740968 4.78275293 -76.125 6.25 C-61.60424661 14.10188202 -47.6906221 18.7175615 -31.1875 15.18359375 C-20.19929657 11.84290055 -9.55021719 6.36681146 0 0 Z " fill="#37B8D0" transform="translate(300,406)"/>
<path d="M0 0 C34.65 0 69.3 0 105 0 C105 32 105 32 102 37 C97.63170361 40.69352069 93.33810718 40.40950837 87.89526367 40.34057617 C86.98745148 40.34101425 86.07963928 40.34145233 85.14431763 40.34190369 C82.15198046 40.33981829 79.16020771 40.31649879 76.16796875 40.29296875 C74.09003506 40.28737192 72.0120974 40.28310223 69.93415833 40.28010559 C64.47113065 40.26866375 59.00834311 40.23920206 53.54541016 40.20599365 C47.96845752 40.17527865 42.391466 40.16159718 36.81445312 40.14648438 C25.87619671 40.11433189 14.93811834 40.06314335 4 40 C3.89042969 38.91460937 3.78085937 37.82921875 3.66796875 36.7109375 C3.50841392 35.26555848 3.34822389 33.82024949 3.1875 32.375 C3.08211914 31.30572266 3.08211914 31.30572266 2.97460938 30.21484375 C2.43896489 25.54402388 1.2484482 22.19097991 -1 18 C-1.328125 14.4921875 -1.328125 14.4921875 -1.25 10.875 C-1.23453125 9.67617188 -1.2190625 8.47734375 -1.203125 7.2421875 C-1 4 -1 4 0 0 Z " fill="#44C6A3" transform="translate(341,264)"/>
<path d="M0 0 C33.99 0 67.98 0 103 0 C104 18 104 18 100 25 C99.31745927 27.08489264 99.31745927 27.08489264 99.171875 28.96484375 C98.95784168 30.98032418 98.74340705 32.9957927 98.515625 35.00976562 C98.32967845 36.67166291 98.16279112 38.33567499 98 40 C86.23880398 40.11589741 74.47774403 40.20471751 62.71609306 40.25906086 C57.25453381 40.28514429 51.79336551 40.32052006 46.33203125 40.37719727 C41.06059049 40.43156085 35.78952555 40.46142997 30.51782608 40.47438622 C28.50756031 40.48361822 26.49731491 40.50164642 24.48720932 40.52865028 C21.66924494 40.56499822 18.8528294 40.56994293 16.03466797 40.56762695 C15.20532242 40.58560333 14.37597687 40.60357971 13.52149963 40.62210083 C9.40993794 40.58558607 6.77859627 40.24716566 3.49783325 37.65202332 C-5.7453345 27.8382792 0 13.15610822 0 0 Z " fill="#44C6A3" transform="translate(66,264)"/>
<path d="M0 0 C2.625 1.5 2.625 1.5 4 4 C4.48 9.04 4.48 9.04 3 12 C-0.03413195 14.38121748 -3.41486658 15.6366394 -7 17 C-8.74216797 17.68255859 -8.74216797 17.68255859 -10.51953125 18.37890625 C-12.80961587 19.26514627 -15.1062024 20.13484243 -17.41015625 20.984375 C-19.8915863 21.75820577 -19.8915863 21.75820577 -21 23 C-20.34926514 23.25168945 -19.69853027 23.50337891 -19.02807617 23.76269531 C-16.07615041 24.91258409 -13.13191778 26.08102767 -10.1875 27.25 C-9.16333984 27.64574219 -8.13917969 28.04148437 -7.08398438 28.44921875 C-6.10107422 28.84238281 -5.11816406 29.23554687 -4.10546875 29.640625 C-3.19949951 29.99672852 -2.29353027 30.35283203 -1.36010742 30.71972656 C1.30625221 32.16613082 2.50873388 33.37071935 4 36 C3.93480059 39.71636626 3.79890124 42.04746391 1.375 44.9375 C-3.02619034 46.90645357 -7.38344575 46.38345892 -11.83642578 44.81005859 C-13.21146511 44.26975658 -14.58096034 43.71518489 -15.9453125 43.1484375 C-16.67821503 42.85192291 -17.41111755 42.55540833 -18.16622925 42.24990845 C-19.70662613 41.62219646 -21.24445923 40.98815952 -22.77978516 40.34814453 C-25.11708802 39.37828307 -27.46550321 38.44023706 -29.81640625 37.50390625 C-31.3184848 36.8873048 -32.81981435 36.26887493 -34.3203125 35.6484375 C-35.01625519 35.3731723 -35.71219788 35.0979071 -36.42922974 34.81430054 C-41.33444565 32.72734375 -43.96621146 30.41219472 -47 26 C-47.74099709 21.77631657 -47.63297548 19.91672311 -45.1875 16.375 C-41.31809108 13.491911 -37.45202664 11.66810652 -33.00146484 9.83642578 C-30.55685224 8.81480554 -28.13370721 7.74710271 -25.70703125 6.68359375 C-23.76363642 5.85012567 -21.81961807 5.01811006 -19.875 4.1875 C-18.94502197 3.77790039 -18.01504395 3.36830078 -17.05688477 2.94628906 C-11.33862711 0.55002816 -6.23544271 -0.99380466 0 0 Z " fill="#040404" transform="translate(216,91)"/>
<path d="M0 0 C2.65675695 0.80038219 5.03840119 1.62755585 7.5703125 2.703125 C8.25503632 2.98218689 8.93976013 3.26124878 9.64523315 3.54876709 C11.08148277 4.13739163 12.51499873 4.73272743 13.94580078 5.33447266 C16.12039764 6.24806645 18.30316146 7.1392553 20.48828125 8.02734375 C21.89115913 8.60547642 23.29352146 9.18486203 24.6953125 9.765625 C25.66115768 10.16119598 25.66115768 10.16119598 26.64651489 10.5647583 C36.96553092 14.93106183 36.96553092 14.93106183 39 19 C39.49793059 23.31539847 39.4319665 25.35951409 36.97241211 29.00634766 C33.86835193 32.51279489 30.37677906 34.00270641 26.06640625 35.6484375 C25.31084946 35.95069244 24.55529266 36.25294739 23.77684021 36.56436157 C22.18741207 37.19586632 20.59463044 37.81898918 18.9987793 38.43408203 C16.5652355 39.37394352 14.14483017 40.3428191 11.72460938 41.31640625 C10.17256374 41.92883166 8.61984995 42.53956706 7.06640625 43.1484375 C6.34747696 43.43584808 5.62854767 43.72325867 4.88783264 44.01937866 C0.78989842 45.5823033 -2.61430312 46.50270676 -7 46 C-9.9375 43.9375 -9.9375 43.9375 -12 41 C-12.1875 37.4375 -12.1875 37.4375 -11 34 C-6.32653349 30.28030216 -1.18685396 28.31684525 4.375 26.25 C5.20644531 25.93417969 6.03789062 25.61835937 6.89453125 25.29296875 C8.92716738 24.52196884 10.96324323 23.7600476 13 23 C12.23816406 22.68546875 11.47632813 22.3709375 10.69140625 22.046875 C-6.81188119 14.79207921 -6.81188119 14.79207921 -11 12 C-12.65844028 5.14511352 -12.65844028 5.14511352 -10.5625 1.5 C-7.07164486 -0.5434274 -3.91775799 -0.39601486 0 0 Z " fill="#040404" transform="translate(304,91)"/>
<path d="M0 0 C2.9375 2.0625 2.9375 2.0625 5 5 C4.79133543 11.94764836 1.86523851 18.3313165 -0.55078125 24.765625 C-1.00599655 25.99480652 -1.46121185 27.22398804 -1.93022156 28.49041748 C-3.13745137 31.75008873 -4.35294211 35.00661686 -5.5703125 38.26251221 C-6.7958351 41.54431257 -8.01392654 44.8288667 -9.23242188 48.11328125 C-11.42937469 54.03344985 -13.62776513 59.95306879 -15.84976196 65.8638916 C-16.61621829 67.95362438 -17.3518961 70.05490543 -18.0562439 72.16638184 C-18.55276962 73.6400824 -18.55276962 73.6400824 -19.05932617 75.14355469 C-19.33951096 76.00970398 -19.61969574 76.87585327 -19.90837097 77.76824951 C-21.21694378 80.44352466 -22.4184067 81.53969344 -25 83 C-28.39685818 82.88081199 -30.94000615 82.58128695 -33.9375 80.9375 C-36.06300814 77.06157339 -35.41795428 72.61155007 -34.34518433 68.47515869 C-33.3952904 65.59522759 -32.36912501 62.75512161 -31.30859375 59.9140625 C-30.73420311 58.33037369 -30.73420311 58.33037369 -30.14820862 56.71469116 C-28.92321834 53.34697243 -27.68047124 49.98611788 -26.4375 46.625 C-25.62842812 44.40535918 -24.82047513 42.18531018 -24.01367188 39.96484375 C-22.06705913 34.62137766 -20.09263723 29.28884434 -18.10223389 23.96154785 C-17.05291579 21.1421773 -16.01992448 18.31726315 -14.98876953 15.49121094 C-14.3801442 13.85577994 -13.77066598 12.22066598 -13.16015625 10.5859375 C-12.76418495 9.48374374 -12.76418495 9.48374374 -12.36021423 8.35928345 C-9.93450544 1.96624721 -7.10325486 -1.15971508 0 0 Z " fill="#050505" transform="translate(271,76)"/>
<path d="M0 0 C1.703125 1.62890625 1.703125 1.62890625 3.25 3.5625 C4.03117187 4.52349609 4.03117187 4.52349609 4.828125 5.50390625 C5.21484375 5.99761719 5.6015625 6.49132812 6 7 C-5.85330251 15.71038139 -17.31825973 19.92195762 -32 19 C-40.13539349 17.5318578 -47.72908788 12.7750824 -55 9 C-55 5.00095031 -53.27413033 3.19799578 -51 0 C-49.58297487 0.14230808 -48.1663904 0.28900746 -46.75 0.4375 C-45.56664062 0.55931641 -45.56664062 0.55931641 -44.359375 0.68359375 C-42 1 -42 1 -40.18310547 1.50708008 C-35.67483129 2.52499616 -30.97641497 2.22774406 -26.375 2.25 C-24.81072266 2.2809375 -24.81072266 2.2809375 -23.21484375 2.3125 C-17.04073128 2.34333202 -11.94280371 1.71727295 -6.14306641 -0.45019531 C-3.6666856 -1.08551196 -2.37346558 -0.89742504 0 0 Z " fill="#F8F8F8" transform="translate(282,387)"/>
</svg>
